<svg width="24" height="24" viewBox="0 0 24 24" fill="none" xmlns="http://www.w3.org/2000/svg">
<g clip-path="url(#clip0_507_1228)">
<path d="M21.0685 9.25708C21.7199 9.83994 22.2685 10.4057 22.6799 10.8514C22.9642 11.1664 23.1216 11.5756 23.1216 11.9999C23.1216 12.4243 22.9642 12.8335 22.6799 13.1485C20.8799 15.0857 16.7828 18.8571 11.9999 18.8571H11.3142" stroke="#2D3648" stroke-width="2" stroke-linecap="round" stroke-linejoin="round"/>
<path d="M6.63425 17.3657C4.64848 16.2535 2.8542 14.8297 1.31996 13.1485C1.03567 12.8335 0.878296 12.4243 0.878296 12C0.878296 11.5756 1.03567 11.1664 1.31996 10.8514C3.11996 8.91425 7.21711 5.14282 12 5.14282C13.8853 5.18223 15.7304 5.6951 17.3657 6.63425" stroke="#2D3648" stroke-width="2" stroke-linecap="round" stroke-linejoin="round"/>
<path d="M21.4286 2.57141L2.57141 21.4286" stroke="#2D3648" stroke-width="2" stroke-linecap="round" stroke-linejoin="round"/>
<path d="M9.58284 14.4171C8.93898 13.7771 8.57524 12.9078 8.57141 12C8.57141 11.0907 8.93263 10.2186 9.57562 9.57562C10.2186 8.93263 11.0907 8.57141 12 8.57141C12.9078 8.57524 13.7771 8.93898 14.4171 9.58284" stroke="#2D3648" stroke-width="2" stroke-linecap="round" stroke-linejoin="round"/>
<path d="M14.9828 13.7142C14.6776 14.2359 14.24 14.6676 13.7142 14.9657" stroke="#2D3648" stroke-width="2" stroke-linecap="round" stroke-linejoin="round"/>
</g>
<defs>
<clipPath id="clip0_507_1228">
<rect width="24" height="24" fill="white"/>
</clipPath>
</defs>
</svg>
