<svg width="100" height="100" viewBox="0 0 100 100" fill="none" xmlns="http://www.w3.org/2000/svg">
<path d="M49.4792 76.35L69.2792 61.5H52.9292C51.6292 61.5 50.7292 60.4 50.9792 59.1L51.8292 54.25C52.0292 53 53.2292 52 54.4792 52H84.6792C86.0292 52 86.8792 53.1 86.6792 54.4L85.9292 58.7C85.6292 60.4 84.5792 61.95 83.1292 63.05L63.3792 77.95H80.0292C81.3292 77.95 82.2292 79 81.9792 80.3L81.0792 85.5C80.8292 86.75 79.6792 87.75 78.4292 87.75H47.8792C46.5792 87.75 45.6792 86.65 45.9292 85.35L46.7292 80.75C47.0292 79.05 48.0292 77.45 49.4792 76.35Z" fill="black"/>
<path d="M11.0417 85.35L16.4917 54.3C16.7417 53 17.9417 52 19.1917 52H47.8917C49.1917 52 50.0917 53.1 49.8417 54.4L48.9917 59.25C48.7917 60.5 47.5917 61.5 46.3417 61.5H26.4917L25.8417 65.2H41.5417C42.8417 65.2 43.7417 66.25 43.4917 67.55L42.6917 72C42.4917 73.25 41.2917 74.25 40.0417 74.25H24.2417L23.5917 77.95H43.2417C44.5417 77.95 45.4417 79 45.1917 80.3L44.2917 85.5C44.0417 86.75 42.8917 87.75 41.6417 87.75H13.0417C11.6917 87.75 10.7917 86.65 11.0417 85.35Z" fill="black"/>
<path d="M66.2764 14.04C62.6601 35.0633 62.6601 34.78 62.7157 35.0633C62.7714 35.29 62.9383 35.46 63.1052 35.5167C63.3834 35.6867 63.1052 35.63 72.9528 35.63C73.5091 35.63 74.0655 35.12 74.1768 34.5533L77.7375 13.9267C77.96 12.85 78.9058 12 79.9629 12H88.3083C89.3654 12 90.1443 12.9067 89.9774 14.04L86.0273 36.9333C85.1371 41.9767 80.4636 46 75.512 46H57.5972C52.6456 46 49.2518 41.8633 50.1419 36.7633L54.0921 13.9267C54.3147 12.85 55.2605 12 56.3176 12H64.6073C65.7201 12 66.499 12.9067 66.2764 14.04Z" fill="black"/>
<path d="M22.9145 6.15637C32.2561 2.7563 42.5852 7.57287 45.9853 16.9145C48.6658 24.279 46.2388 32.2565 40.5146 36.9696L42.2334 41.6919L30.9571 45.7962L29.2383 41.0739C21.8238 41.1428 14.8368 36.5917 12.1564 29.2272C8.7563 19.8856 13.5729 9.55643 22.9145 6.15637Z" fill="#0145F2"/>
<path d="M30.543 23.511L34.0161 24.8099L26.3215 35.3706L27.2941 24.0883L23.821 22.7895L31.5156 12.2287L30.543 23.511Z" fill="white"/>
<path d="M43.2065 43.7374C43.6364 43.6288 44.087 43.8609 44.2419 44.2865C44.4072 44.7406 44.1731 45.2427 43.719 45.408L32.2077 49.5977C31.7536 49.763 31.2515 49.5289 31.0862 49.0748C30.921 48.6206 31.1551 48.1185 31.6092 47.9533C31.1551 48.1185 30.653 47.8844 30.4877 47.4303C30.3224 46.9762 30.5566 46.4741 31.0107 46.3088C30.5566 46.4741 30.0544 46.2399 29.8892 45.7858C29.7239 45.3317 29.958 44.8296 30.4121 44.6643C29.958 44.8296 29.4559 44.5955 29.2906 44.1414C29.1254 43.6873 29.3595 43.1852 29.8136 43.0199L41.3248 38.8301C41.7789 38.6648 42.281 38.899 42.4463 39.3531C42.6116 39.8072 42.3775 40.3093 41.9234 40.4746C42.3775 40.3093 42.8796 40.5434 43.0449 40.9975C43.2101 41.4517 42.976 41.9538 42.5219 42.119L42.608 42.0929C43.0378 41.9844 43.4885 42.2164 43.6434 42.642C43.8087 43.0961 43.5745 43.5982 43.1204 43.7635L43.2065 43.7374Z" fill="#1A202C"/>
</svg>
