<svg width="24" height="24" viewBox="0 0 24 24" fill="none" xmlns="http://www.w3.org/2000/svg">
<g clip-path="url(#clip0_507_1223)">
<path d="M22.68 10.8514C22.9643 11.1664 23.1216 11.5756 23.1216 12C23.1216 12.4243 22.9643 12.8335 22.68 13.1485C20.88 15.0857 16.7828 18.8571 12 18.8571C7.21711 18.8571 3.11996 15.0857 1.31996 13.1485C1.03567 12.8335 0.878296 12.4243 0.878296 12C0.878296 11.5756 1.03567 11.1664 1.31996 10.8514C3.11996 8.91425 7.21711 5.14282 12 5.14282C16.7828 5.14282 20.88 8.91425 22.68 10.8514Z" stroke="#2D3648" stroke-width="2" stroke-linecap="round" stroke-linejoin="round"/>
<path d="M12 15.4286C13.8935 15.4286 15.4286 13.8935 15.4286 12C15.4286 10.1064 13.8935 8.57141 12 8.57141C10.1064 8.57141 8.57141 10.1064 8.57141 12C8.57141 13.8935 10.1064 15.4286 12 15.4286Z" stroke="#2D3648" stroke-width="2" stroke-linecap="round" stroke-linejoin="round"/>
</g>
<defs>
<clipPath id="clip0_507_1223">
<rect width="24" height="24" fill="white"/>
</clipPath>
</defs>
</svg>
